<?xml version="1.0" encoding="UTF-8"?>
<svg xmlns="http://www.w3.org/2000/svg" id="Icons" viewBox="0 0 74 74" width="512" height="512"><path d="M35.27,72h-2.9a1,1,0,0,1,0-2h2.9a1,1,0,1,1,0,2Z"/><path d="M68,72H52.24a1,1,0,0,1,0-2H67V66H7v4H25.37a1,1,0,1,1,0,2H6a1,1,0,0,1-1-1V65a1,1,0,0,1,1-1H68a1,1,0,0,1,1,1v6A1,1,0,0,1,68,72Z"/><path d="M45.24,72H42.27a1,1,0,0,1,0-2h2.97a1,1,0,1,1,0,2Z"/><path d="M62,66H38.22a1,1,0,0,1-1-1V9.147a1,1,0,0,1,.75-.968L61.75,2.032A1,1,0,0,1,63,3V65A1,1,0,0,1,62,66ZM39.22,64H61V4.292L39.22,9.922Z"/><path d="M38.22,66H25.11a1,1,0,0,1-1-1V18.082a1,1,0,0,1,.7-.955l13.11-4.082a1,1,0,0,1,1.3.955V65A1,1,0,0,1,38.22,66ZM26.11,64H37.22V15.359L26.11,18.818Z"/><path d="M25.11,66H12a1,1,0,0,1-1-1V28.082a1,1,0,0,1,.7-.955l13.11-4.082a1,1,0,0,1,1.3.955V65A1,1,0,0,1,25.11,66ZM13,64H24.11V25.359L13,28.818Z"/><path d="M62,20H52a1,1,0,0,1,0-2H62a1,1,0,0,1,0,2Z"/><path d="M47.375,20H46.292a1,1,0,0,1,0-2h1.083a1,1,0,0,1,0,2Z"/><path d="M62,27.2H52a1,1,0,0,1,0-2H62a1,1,0,0,1,0,2Z"/><path d="M47.375,27.2H46.292a1,1,0,0,1,0-2h1.083a1,1,0,0,1,0,2Z"/><path d="M62,34.4H52a1,1,0,0,1,0-2H62a1,1,0,0,1,0,2Z"/><path d="M47.375,34.4H46.292a1,1,0,0,1,0-2h1.083a1,1,0,0,1,0,2Z"/><path d="M62,41.6H52a1,1,0,0,1,0-2H62a1,1,0,0,1,0,2Z"/><path d="M47.375,41.6H46.292a1,1,0,0,1,0-2h1.083a1,1,0,0,1,0,2Z"/><path d="M62,48.8H52a1,1,0,0,1,0-2H62a1,1,0,0,1,0,2Z"/><path d="M47.375,48.8H46.292a1,1,0,0,1,0-2h1.083a1,1,0,0,1,0,2Z"/><path d="M62,56H52a1,1,0,0,1,0-2H62a1,1,0,0,1,0,2Z"/><path d="M47.375,56H46.292a1,1,0,0,1,0-2h1.083a1,1,0,0,1,0,2Z"/><path d="M38.22,37.667a.978.978,0,0,1-.372-.073l-13.11-5.266a1,1,0,0,1,.745-1.856l13.11,5.267a1,1,0,0,1-.373,1.928Z"/><path d="M12,37.667a1,1,0,0,1-.373-1.928l13.111-5.267a1,1,0,0,1,.745,1.856l-13.11,5.266A.983.983,0,0,1,12,37.667Z"/><path d="M38.22,45.634a1,1,0,0,1-.372-.073l-13.11-5.267a1,1,0,0,1,.745-1.855l13.11,5.267a1,1,0,0,1-.373,1.928Z"/><path d="M12,45.634a1,1,0,0,1-.373-1.928l13.111-5.267a1,1,0,0,1,.745,1.855l-13.11,5.267A1,1,0,0,1,12,45.634Z"/><path d="M38.22,53.6a1,1,0,0,1-.372-.073l-13.11-5.267a1,1,0,0,1,.745-1.855l13.11,5.266A1,1,0,0,1,38.22,53.6Z"/><path d="M12,53.6a1,1,0,0,1-.373-1.929l13.111-5.266a1,1,0,0,1,.745,1.855l-13.11,5.267A1,1,0,0,1,12,53.6Z"/><path d="M38.22,61.567a1,1,0,0,1-.373-.072L24.738,56.228a1,1,0,0,1,.745-1.856l13.11,5.267a1,1,0,0,1-.373,1.928Z"/><path d="M12,61.567a1,1,0,0,1-.373-1.928l13.111-5.267a1,1,0,0,1,.745,1.856L12.373,61.5A1,1,0,0,1,12,61.567Z"/></svg>
