<?xml version="1.0" encoding="UTF-8"?>
<svg xmlns="http://www.w3.org/2000/svg" xmlns:xlink="http://www.w3.org/1999/xlink" width="40pt" height="40pt" viewBox="0 0 40 40" version="1.1">
<g id="surface1">
<path style=" stroke:none;fill-rule:nonzero;fill:rgb(0%,0%,0%);fill-opacity:1;" d="M 20 40 C 14.65625 40 9.636719 37.917969 5.859375 34.140625 C 2.082031 30.363281 0 25.34375 0 20 C 0 14.65625 2.082031 9.636719 5.859375 5.859375 C 9.636719 2.082031 14.65625 0 20 0 C 25.34375 0 30.363281 2.082031 34.140625 5.859375 C 37.917969 9.636719 40 14.65625 40 20 C 40 25.34375 37.917969 30.363281 34.140625 34.140625 C 30.363281 37.917969 25.34375 40 20 40 Z M 20 3.125 C 10.695312 3.125 3.125 10.695312 3.125 20 C 3.125 29.304688 10.695312 36.875 20 36.875 C 29.304688 36.875 36.875 29.304688 36.875 20 C 36.875 10.695312 29.304688 3.125 20 3.125 Z M 30.804688 17.34375 L 28.59375 15.132812 L 20 23.726562 L 11.40625 15.132812 L 9.195312 17.34375 L 20 28.148438 Z M 30.804688 17.34375 "/>
</g>
</svg>
