<?xml version="1.0" encoding="UTF-8"?>
<svg xmlns="http://www.w3.org/2000/svg" xmlns:xlink="http://www.w3.org/1999/xlink" width="25px" height="25px" viewBox="0 0 25 25" version="1.1">
<g id="surface1">
<path style=" stroke:none;fill-rule:nonzero;fill:rgb(0%,0%,0%);fill-opacity:1;" d="M 12.46875 0 C 5.582031 0 0 5.582031 0 12.46875 C 0 19.355469 5.582031 24.9375 12.46875 24.9375 C 19.355469 24.9375 24.9375 19.355469 24.9375 12.46875 C 24.9375 5.582031 19.355469 0 12.46875 0 Z M 17.226562 6.347656 L 15.5 6.351562 C 14.148438 6.351562 13.886719 6.992188 13.886719 7.9375 L 13.886719 10.015625 L 17.109375 10.015625 L 17.109375 13.269531 L 13.886719 13.269531 L 13.886719 21.628906 L 10.523438 21.628906 L 10.523438 13.269531 L 7.710938 13.269531 L 7.710938 10.015625 L 10.523438 10.015625 L 10.523438 7.613281 C 10.523438 4.828125 12.226562 3.308594 14.710938 3.308594 L 17.226562 3.3125 Z M 17.226562 6.347656 "/>
</g>
</svg>
