<?xml version="1.0" encoding="UTF-8"?>
<svg xmlns="http://www.w3.org/2000/svg" xmlns:xlink="http://www.w3.org/1999/xlink" width="25pt" height="25pt" viewBox="0 0 25 25" version="1.1">
<g id="surface1">
<path style=" stroke:none;fill-rule:nonzero;fill:rgb(0%,0%,0%);fill-opacity:1;" d="M 14.890625 12.5 C 14.890625 13.820312 13.820312 14.890625 12.5 14.890625 C 11.179688 14.890625 10.109375 13.820312 10.109375 12.5 C 10.109375 11.179688 11.179688 10.109375 12.5 10.109375 C 13.820312 10.109375 14.890625 11.179688 14.890625 12.5 Z M 14.890625 12.5 "/>
<path style=" stroke:none;fill-rule:nonzero;fill:rgb(0%,0%,0%);fill-opacity:1;" d="M 18.09375 8.265625 C 17.980469 7.957031 17.796875 7.671875 17.558594 7.441406 C 17.328125 7.203125 17.046875 7.019531 16.734375 6.90625 C 16.480469 6.804688 16.101562 6.6875 15.402344 6.65625 C 14.644531 6.625 14.417969 6.617188 12.5 6.617188 C 10.582031 6.617188 10.355469 6.621094 9.597656 6.65625 C 8.898438 6.6875 8.519531 6.804688 8.265625 6.90625 C 7.953125 7.019531 7.671875 7.203125 7.441406 7.441406 C 7.203125 7.671875 7.019531 7.953125 6.90625 8.265625 C 6.804688 8.519531 6.6875 8.898438 6.65625 9.601562 C 6.621094 10.355469 6.617188 10.582031 6.617188 12.5 C 6.617188 14.417969 6.621094 14.644531 6.65625 15.402344 C 6.6875 16.101562 6.804688 16.480469 6.90625 16.734375 C 7.019531 17.046875 7.203125 17.328125 7.441406 17.558594 C 7.671875 17.796875 7.953125 17.980469 8.265625 18.09375 C 8.519531 18.195312 8.898438 18.3125 9.597656 18.34375 C 10.355469 18.378906 10.582031 18.382812 12.5 18.382812 C 14.417969 18.382812 14.644531 18.378906 15.398438 18.34375 C 16.101562 18.3125 16.480469 18.195312 16.734375 18.09375 C 17.359375 17.855469 17.855469 17.359375 18.09375 16.734375 C 18.195312 16.480469 18.308594 16.101562 18.34375 15.402344 C 18.378906 14.644531 18.382812 14.417969 18.382812 12.5 C 18.382812 10.582031 18.378906 10.355469 18.34375 9.601562 C 18.3125 8.898438 18.195312 8.519531 18.09375 8.265625 Z M 12.5 16.1875 C 10.464844 16.1875 8.8125 14.535156 8.8125 12.5 C 8.8125 10.464844 10.464844 8.8125 12.5 8.8125 C 14.535156 8.8125 16.1875 10.464844 16.1875 12.5 C 16.1875 14.535156 14.535156 16.1875 12.5 16.1875 Z M 16.332031 9.53125 C 15.855469 9.53125 15.46875 9.144531 15.46875 8.667969 C 15.46875 8.191406 15.855469 7.808594 16.332031 7.808594 C 16.808594 7.808594 17.191406 8.191406 17.191406 8.667969 C 17.191406 9.144531 16.808594 9.53125 16.332031 9.53125 Z M 16.332031 9.53125 "/>
<path style=" stroke:none;fill-rule:nonzero;fill:rgb(0%,0%,0%);fill-opacity:1;" d="M 12.5 0 C 5.597656 0 0 5.597656 0 12.5 C 0 19.402344 5.597656 25 12.5 25 C 19.402344 25 25 19.402344 25 12.5 C 25 5.597656 19.402344 0 12.5 0 Z M 19.632812 15.460938 C 19.601562 16.222656 19.476562 16.746094 19.300781 17.203125 C 18.929688 18.164062 18.164062 18.929688 17.203125 19.300781 C 16.746094 19.476562 16.222656 19.597656 15.460938 19.632812 C 14.695312 19.667969 14.449219 19.679688 12.5 19.679688 C 10.550781 19.679688 10.304688 19.667969 9.539062 19.632812 C 8.777344 19.597656 8.253906 19.476562 7.796875 19.300781 C 7.320312 19.121094 6.886719 18.839844 6.527344 18.472656 C 6.160156 18.113281 5.878906 17.679688 5.699219 17.203125 C 5.523438 16.746094 5.402344 16.222656 5.367188 15.460938 C 5.332031 14.695312 5.324219 14.449219 5.324219 12.5 C 5.324219 10.550781 5.332031 10.304688 5.367188 9.539062 C 5.398438 8.777344 5.523438 8.253906 5.699219 7.796875 C 5.878906 7.320312 6.160156 6.886719 6.527344 6.527344 C 6.886719 6.160156 7.320312 5.878906 7.796875 5.699219 C 8.253906 5.523438 8.777344 5.402344 9.539062 5.367188 C 10.304688 5.332031 10.550781 5.324219 12.5 5.324219 C 14.449219 5.324219 14.695312 5.332031 15.460938 5.367188 C 16.222656 5.402344 16.746094 5.523438 17.203125 5.699219 C 17.679688 5.878906 18.113281 6.160156 18.472656 6.527344 C 18.839844 6.886719 19.121094 7.320312 19.300781 7.796875 C 19.476562 8.253906 19.601562 8.777344 19.632812 9.539062 C 19.667969 10.304688 19.675781 10.550781 19.675781 12.5 C 19.675781 14.449219 19.667969 14.695312 19.632812 15.460938 Z M 19.632812 15.460938 "/>
</g>
</svg>
