<?xml version="1.0" encoding="UTF-8"?>
<svg xmlns="http://www.w3.org/2000/svg" xmlns:xlink="http://www.w3.org/1999/xlink" width="25px" height="25px" viewBox="0 0 25 25" version="1.1">
<g id="surface1">
<path style=" stroke:none;fill-rule:nonzero;fill:rgb(0%,0%,0%);fill-opacity:1;" d="M 12.5 0 C 5.597656 0 0 5.597656 0 12.5 C 0 19.402344 5.597656 25 12.5 25 C 19.402344 25 25 19.402344 25 12.5 C 25 5.597656 19.402344 0 12.5 0 Z M 18.207031 9.746094 C 18.210938 9.871094 18.214844 9.992188 18.214844 10.117188 C 18.214844 13.90625 15.328125 18.28125 10.050781 18.28125 C 8.433594 18.28125 6.925781 17.804688 5.65625 16.992188 C 5.878906 17.019531 6.109375 17.03125 6.339844 17.03125 C 7.683594 17.03125 8.921875 16.574219 9.902344 15.804688 C 8.644531 15.78125 7.585938 14.949219 7.222656 13.808594 C 7.398438 13.84375 7.578125 13.863281 7.761719 13.863281 C 8.023438 13.863281 8.277344 13.828125 8.519531 13.761719 C 7.203125 13.5 6.214844 12.335938 6.214844 10.949219 C 6.214844 10.9375 6.214844 10.925781 6.214844 10.910156 C 6.601562 11.125 7.046875 11.257812 7.515625 11.269531 C 6.746094 10.757812 6.238281 9.878906 6.238281 8.882812 C 6.238281 8.355469 6.382812 7.863281 6.628906 7.441406 C 8.042969 9.175781 10.15625 10.316406 12.542969 10.4375 C 12.492188 10.226562 12.46875 10.007812 12.46875 9.785156 C 12.46875 8.199219 13.753906 6.914062 15.335938 6.914062 C 16.160156 6.914062 16.90625 7.265625 17.429688 7.820312 C 18.085938 7.691406 18.699219 7.453125 19.253906 7.125 C 19.039062 7.796875 18.582031 8.355469 17.992188 8.710938 C 18.570312 8.644531 19.125 8.488281 19.636719 8.261719 C 19.253906 8.835938 18.765625 9.339844 18.207031 9.746094 Z M 18.207031 9.746094 "/>
</g>
</svg>
